# Blender v2.76 (sub 0) OBJ File: 'hyperdoric_column.blend'
# www.blender.org
mtllib column_h.mtl
o Cube
v 0.166667 -0.500000 -0.166667
v 0.166667 -0.500000 0.166667
v -0.166667 -0.500000 0.166667
v -0.166667 -0.500000 -0.166667
v 0.166667 0.500000 -0.166667
v 0.166666 0.500000 0.166667
v -0.166667 0.500000 0.166667
v -0.166667 0.500000 -0.166667
v 0.166667 -0.341667 -0.166667
v 0.166667 0.341667 -0.166667
v 0.166667 -0.341667 0.166667
v 0.166667 0.341667 0.166667
v -0.166667 -0.341667 0.166667
v -0.166667 0.341667 0.166667
v -0.166667 -0.341667 -0.166667
v -0.166667 0.341667 -0.166667
v 0.083333 -0.341667 -0.083333
v 0.083333 0.341667 -0.083333
v 0.083333 -0.341667 0.083333
v 0.083333 0.341667 0.083333
v -0.083333 -0.341667 0.083333
v -0.083333 0.341667 0.083333
v -0.083333 -0.341667 -0.083333
v -0.083333 0.341667 -0.083333
vt 0.750000 0.070000
vt 0.750000 0.250000
vt 0.500000 0.250000
vt 0.500000 0.070000
vt 0.250000 0.250000
vt 0.250000 0.070000
vt 0.000000 0.250000
vt 0.000000 0.070000
vt 0.750000 0.240000
vt 1.000000 0.070000
vt 1.000000 0.240000
vt 1.000000 0.250000
vt -0.000000 0.600000
vt -0.000000 0.100000
vt 0.120000 0.230000
vt 0.120000 0.480000
vt 0.250000 0.240000
vt 0.000000 0.240000
vt 0.500000 0.600000
vt 0.370000 0.480000
vt 0.500000 0.240000
vt 0.500000 0.100000
vt 1.000000 0.100000
vt 0.880000 0.230000
vt 0.620000 0.230000
vt 1.000000 0.600000
vt 0.880000 0.480000
vt 0.600000 1.000000
vt 0.600000 -0.000000
vt 0.790000 -0.000000
vt 0.790000 1.000000
vt 0.200000 -0.000000
vt 0.200000 1.000000
vt -0.000000 1.000000
vt -0.000000 -0.000000
vt 0.400000 -0.000000
vt 0.400000 1.000000
vt 0.370000 0.230000
vt 0.620000 0.480000
vn 0.577300 -0.577300 -0.577300
vn 0.707100 0.000000 -0.707100
vn 0.707100 0.000000 0.707100
vn 0.577300 -0.577300 0.577300
vn -0.707100 0.000000 0.707100
vn -0.577300 -0.577300 0.577300
vn -0.707100 0.000000 -0.707100
vn -0.577300 -0.577300 -0.577300
vn 0.577300 0.577300 -0.577300
vn -0.577300 0.577300 -0.577300
vn 0.301500 -0.904500 0.301500
vn 0.301500 -0.904500 -0.301500
vn -0.577300 0.577300 0.577300
vn -0.301500 -0.904500 -0.301500
vn 0.577300 0.577300 0.577300
vn -0.301500 0.904500 0.301500
vn -0.301500 0.904500 -0.301500
vn 0.301500 0.904500 0.301500
vn 0.301500 0.904500 -0.301500
vn -0.301500 -0.904500 0.301500
usemtl Material.004
s 1
f 10/1/1 5/2/2 6/3/3 12/4/4
f 12/4/4 6/3/3 7/5/5 14/6/6
f 14/6/6 7/5/5 8/7/7 16/8/8
f 9/9/9 1/1/2 4/10/7 15/11/10
f 5/2/2 10/1/1 16/10/8 8/12/7
f 10/13/1 12/14/4 20/15/11 18/16/12
f 3/6/5 13/17/13 15/18/10 4/8/7
f 16/19/8 10/13/1 18/16/12 24/20/14
f 2/4/3 11/21/15 13/17/13 3/6/5
f 15/22/10 13/23/13 21/24/16 23/25/17
f 1/1/2 9/9/9 11/21/15 2/4/3
f 13/23/13 11/26/15 19/27/18 21/24/16
f 18/28/12 17/29/19 23/30/17 24/31/14
f 21/32/16 22/33/20 24/34/14 23/35/17
f 19/36/18 20/37/11 22/33/20 21/32/16
f 17/29/19 18/28/12 20/37/11 19/36/18
f 12/14/4 14/22/6 22/38/20 20/15/11
f 14/22/6 16/19/8 24/20/14 22/38/20
f 9/19/9 15/22/10 23/25/17 17/39/19
f 11/26/15 9/19/9 17/39/19 19/27/18
