# Blender v2.76 (sub 0) OBJ File: 'crazy.blend'
# www.blender.org
mtllib crazy.mtl
o Icosphere
v 0.002556 -0.498537 -0.584479
v 0.183456 0.225070 -0.715909
v -0.066540 0.225070 -0.797139
v -0.221050 0.225070 -0.584479
v -0.066540 0.225070 -0.371819
v 0.183456 0.225070 -0.453049
v 0.071653 -0.222145 -0.797139
v -0.178344 -0.222145 -0.715909
v -0.178344 -0.222145 -0.453049
v 0.071653 -0.222145 -0.371819
v 0.226163 -0.222145 -0.584479
v 0.002556 0.501463 -0.584479
vt 0.665488 0.979518
vt 0.424668 0.600452
vt 0.553232 0.539015
vt 0.274103 0.709264
vt 0.704872 0.492518
vt 0.999765 0.445907
vt 0.084785 0.979176
vt 0.295128 0.492883
vt 0.446768 0.446386
vt 0.575332 0.384948
vt 0.725897 0.276137
vt 0.000235 0.539494
vt 0.915215 0.006225
vt 0.334512 0.005883
vn -0.299800 0.242500 0.922700
vn -0.970100 0.242500 -0.000000
vn 0.784900 0.242500 0.570200
vn 0.784900 0.242500 -0.570200
vn -0.299800 0.242500 -0.922700
vn 0.995500 0.095100 -0.000000
vn 0.307600 0.095100 -0.946700
vn -0.805300 0.095100 -0.585100
vn -0.805300 0.095100 0.585100
vn 0.307600 0.095100 0.946700
vn 0.805300 -0.095100 -0.585100
vn -0.307600 -0.095100 -0.946700
vn -0.995500 -0.095100 0.000000
vn -0.307600 -0.095100 0.946700
vn 0.805300 -0.095100 0.585100
vn -0.784900 -0.242500 0.570200
vn 0.299800 -0.242500 0.922700
vn 0.970100 -0.242500 0.000000
vn 0.299800 -0.242500 -0.922700
vn -0.784900 -0.242500 -0.570200
usemtl Material
s off
f 1/1/1 2/2/1 3/3/1
f 2/2/2 1/1/2 6/4/2
f 1/1/3 3/3/3 4/5/3
f 1/1/4 4/5/4 5/6/4
f 1/1/5 5/7/5 6/4/5
f 2/2/6 6/4/6 11/8/6
f 3/3/7 2/2/7 7/9/7
f 4/5/8 3/3/8 8/10/8
f 5/6/9 4/5/9 9/11/9
f 6/4/10 5/7/10 10/12/10
f 2/2/11 11/8/11 7/9/11
f 3/3/12 7/9/12 8/10/12
f 4/5/13 8/10/13 9/11/13
f 5/6/14 9/11/14 10/13/14
f 6/4/15 10/12/15 11/8/15
f 7/9/16 11/8/16 12/14/16
f 8/10/17 7/9/17 12/14/17
f 9/11/18 8/10/18 12/14/18
f 10/13/19 9/11/19 12/14/19
f 11/8/20 10/12/20 12/14/20
